# AST/ASF file generated using VICON BodyLanguage
# -----------------------------------------------
:version 1.10
:name VICON
:units
  mass 1.0
  length 0.45
  angle deg
:documentation
   .ast/.asf automatically generated from VICON data using
   VICON BodyBuilder and BodyLanguage model FoxedUp or BRILLIANT.MOD
:root
   order TX TY TZ RX RY RZ
   axis XYZ
   position 0 0 0  
   orientation 0 0 0 
:bonedata
  begin
     id 1 
     name lhipjoint
     direction 0.650112 -0.723553 0.232005 
     length 2.45805 
     axis 0 0 0  XYZ
  end
  begin
     id 2 
     name lfemur
     direction 0.34202 -0.939693 0  
     length 7.00073  
     axis 0 0 20  XYZ
    dof rx ry rz
    limits (-160.0 20.0)
           (-70.0 70.0)
           (-60.0 70.0)
  end
  begin
     id 3 
     name ltibia
     direction 0.34202 -0.939693 0   
     length 7.8748   
     axis 0 0 20   XYZ
    dof rx
    limits (-10.0 170.0)
  end
  begin
     id 4 
     name lfoot
     direction 0.0542825 -0.14914 0.987325   
     length 1.75978   
     axis -90 7.62852e-016 20   XYZ
    dof rx rz
    limits (-45.0 90.0)
           (-70.0 20.0)
  end
  begin
     id 5 
     name ltoes
     direction 1.53509e-011 -4.21906e-011 1   
     length 0.893912   
     axis -90 7.62852e-016 20   XYZ
    dof rx
    limits (-90.0 20.0)
  end
  begin
     id 6 
     name rhipjoint
     direction -0.637897 -0.733345 0.235145   
     length 2.42522  
     axis 0 0 0  XYZ 
  end
  begin
     id 7 
     name rfemur
     direction -0.34202 -0.939693 0   
     length 7.02549   
     axis 0 0 -20   XYZ
    dof rx ry rz
    limits (-160.0 20.0)
           (-70.0 70.0)
           (-70.0 60.0)
  end
  begin
     id 8 
     name rtibia
     direction -0.34202 -0.939693 0   
     length 7.71512   
     axis 0 0 -20   XYZ
    dof rx
    limits (-10.0 170.0)
 end
 begin
     id 9 
     name rfoot
     direction -0.0822618 -0.226012 0.970645   
     length 1.90014  
     axis -90 -7.62852e-016 -20   XYZ
    dof rx rz
    limits (-45.0 90.0)
           (-20.0 70.0)
  end
  begin
     id 10 
     name rtoes
     direction -1.53542e-011 -4.21872e-011 1   
     length 0.957341   
     axis -90 -7.62852e-016 -20   XYZ
    dof rx
    limits (-90.0 20.0)
  end
  begin
     id 11 
     name lowerback
     direction -0.0022947 0.999774 -0.0211557   
     length 1.89909   
     axis 0 0 0   XYZ
    dof rx ry rz
    limits (-20.0 45.0)
           (-30.0 30.0)
           (-30.0 30.0)
  end
  begin
     id 12 
     name upperback
     direction 0.0107737 0.998635 0.0511027   
     length 1.8853   
     axis 0 0 0   XYZ
    dof rx ry rz
    limits (-20.0 45.0)
           (-30.0 30.0)
           (-30.0 30.0)
  end
  begin
     id 13 
     name thorax
     direction 0.011824 0.998136 0.0598754   
     length 1.88911   
     axis 0 0 0   XYZ
    dof rx ry rz
    limits (-20.0 45.0)
           (-30.0 30.0)
           (-30.0 30.0)
  end
  begin
     id 14 
     name lowerneck
     direction -0.0685355 0.990319 0.120714   
     length 1.91222   
     axis 0 0 0   XYZ
    dof rx ry rz
    limits (-20.0 45.0)
           (-30.0 30.0)
           (-30.0 30.0)
  end
  begin
     id 15 
     name upperneck
     direction 0.0886204 0.955665 -0.280805   
     length 1.92526   
     axis 0 0 0   XYZ
    dof rx ry rz
    limits (-20.0 45.0)
           (-30.0 30.0)
           (-30.0 30.0)
  end
  begin
     id 16
     name head
     direction 0.0233423 0.993502 -0.111393  
     length 1.96056  
     axis 0 0 0   XYZ
    dof rx ry rz
    limits (-20.0 45.0)
           (-30.0 30.0)
           (-30.0 30.0)
  end
  begin
     id 17 
     name lclavicle
     direction 0.941873 0.32922 0.0670041  
     length 3.31705  
     axis 0 0 0   XYZ
    dof ry rz
    limits (-20.0 10.0)
           (0.0 20.0)
  end
  begin
     id 18 
     name lhumerus
     direction 1 -4.4898e-011 3.38707e-028   
     length 5.29277   
     axis 180 -30 -90   XYZ
    dof rx ry rz
    limits (-60.0 90.0)
           (-90.0 90.0)
           (-90.0 90.0)
  end
  begin
     id 19
     name lradius
     direction 1 -4.48952e-011 1.63213e-028   
     length 2.85226   
     axis 180 -30 -90   XYZ
    dof rx
    limits (-10.0 170.0)
  end
  begin
     id 20
     name lwrist
     direction 1 -4.49001e-011 1.27856e-027   
     length 1.42613   
     axis -1.61767e-015 90 90   XYZ
    dof ry
    limits (-180.0 0.0)
 end
  begin
     id 21 
     name lhand
     direction 1 -4.48976e-011 2.55931e-027   
     length 0.602097   
     axis -1.63363e-015 90 90   XYZ
    dof rx rz
    limits (-90.0 90.0)
           (-45.0 45.0)
  end
  begin
     id 22 
     name lfingers
     direction 1 -4.48986e-011 5.11684e-027   
     length 0.485426   
     axis -3.26723e-015 90 90   XYZ
    dof rx
    limits (0.0 90.0)
  end
  begin
     id 23
     name lthumb
     direction 0.707107 -6.34915e-011 0.707107   
     length 0.696978   
     axis -90 45 -2.25915e-014   XYZ
    dof rx rz
    limits (-45.0 45.0)
           (-45.0 45.0)
  end
  begin
     id 24 
     name rclavicle
     direction -0.939974 0.327078 0.0973096   
     length 3.10337  
     axis 0 0 0   XYZ 
    dof ry rz
    limits (-10.0 20.0)
           (-20.0 0.0)
  end
  begin
     id 25 
     name rhumerus
     direction -1 -4.48975e-011 1.83745e-027  
     length 5.13304   
     axis 180 30 90   XYZ
    dof rx ry rz
    limits (-90.0 60.0)
           (-90.0 90.0)
           (-90.0 90.0)
  end
  begin
     id 26 
     name rradius
     direction -1 -4.48977e-011 7.1775e-029   
     length 2.74305   
     axis 180 30 90   XYZ
    dof rx
    limits (-10.0 170.0)
  end
  begin
     id 27 
     name rwrist
     direction -1 -4.48977e-011 1.27963e-027   
     length 1.37152   
     axis -1.61767e-015 -90 -90   XYZ
    dof ry
    limits (-180.0 0.0)
  end
  begin
     id 28
     name rhand
     direction -1 -4.4888e-011 2.56782e-027   
     length 0.767976   
     axis -1.63363e-015 -90 -90   XYZ
    dof rx rz
    limits (-90.0 90.0)
           (-45.0 45.0)
  end
  begin
     id 29
     name rfingers
     direction -1 -4.48947e-011 5.12384e-027   
     length 0.619162   
     axis -3.26723e-015 -90 -90   XYZ
    dof rx
    limits (0.0 90.0)
  end
  begin
     id 30
     name rthumb
     direction -0.707107 -6.34857e-011 0.707107   
     length 0.888997   
     axis -90 -45 2.25915e-014   XYZ
    dof rx rz
    limits (-45.0 45.0)
           (-45.0 45.0)
  end
:hierarchy
  begin
    root lhipjoint rhipjoint lowerback
    lhipjoint lfemur
    lfemur ltibia
    ltibia lfoot
    lfoot ltoes
    rhipjoint rfemur
    rfemur rtibia
    rtibia rfoot
    rfoot rtoes
    lowerback upperback
    upperback thorax
    thorax lowerneck lclavicle rclavicle
    lowerneck upperneck
    upperneck head
    lclavicle lhumerus
    lhumerus lradius
    lradius lwrist
    lwrist lhand lthumb
    lhand lfingers
    rclavicle rhumerus
    rhumerus rradius
    rradius rwrist
    rwrist rhand rthumb
    rhand rfingers
  end

#!OML:ASF F:\VICON\USERDATA\INSTALL\rory3\rory3.ASF
:FULLY-SPECIFIED
:DEGREES
368
root -1.32566 15.6911 -1.39729 12.3729 0.133553 -15.0099
lowerback 18.1109 1.79958 -11.9816
upperback 9.92427 0.302643 -11.6869
thorax 0.760023 0.0119324 -5.98416
lowerneck -8.15764 -5.37358 -16.8094
upperneck 5.16587 -7.81174 28.0873
head 4.86283 -3.1937 11.633
rclavicle -6.67916e-014 -2.54444e-014
rhumerus -17.4259 -17.9571 9.32931
rradius 112.974
rwrist -48.4769
rhand 8.73705 12.3434
rfingers 7.12502
rthumb 33.9275 -14.4564
lclavicle -6.67916e-014 -2.54444e-014
lhumerus 4.25583 24.5501 -5.22383
lradius 20.7932
lwrist -20.3361
lhand -1.68428 28.2527
lfingers 7.12502
lthumb 23.9762 56.7755
rfemur -39.0897 0.883232 40.8685
rtibia 51.7373
rfoot -32.1743 -3.23434
rtoes -5.57325
lfemur -44.7577 15.8596 3.66192
ltibia 62.6368
lfoot -25.1892 -14.6138
ltoes -12.0796
369
root -1.35021 15.6935 -1.36984 12.1971 0.496574 -14.8145
lowerback 17.8768 1.99142 -12.6256
upperback 9.98875 0.527209 -11.2957
thorax 0.962025 0.0806521 -5.22546
lowerneck -8.07121 -5.38466 -17.2977
upperneck 4.98718 -7.72051 27.8925
head 4.78127 -3.17523 11.6579
rclavicle -1.27222e-014 -6.36111e-014
rhumerus -16.877 -18.2255 9.80638
rradius 112.704
rwrist -48.9222
rhand 9.315 12.2045
rfingers 7.12502
rthumb 34.4764 -14.4723
lclavicle -1.27222e-014 -6.36111e-014
lhumerus 3.35582 26.1069 -6.40055
lradius 20.7043
lwrist -21.1331
lhand -1.92189 28.2487
lfingers 7.12502
lthumb 23.7483 56.8013
rfemur -38.8829 0.46813 40.8037
rtibia 51.812
rfoot -32.388 -3.18163
rtoes -5.49136
lfemur -44.5784 15.396 3.62555
ltibia 62.5745
lfoot -25.4355 -14.3993
ltoes -13.0308
370
root -1.37838 15.6919 -1.34441 12.0401 0.759589 -14.6808
lowerback 17.7203 2.12316 -12.9194
upperback 10.0002 0.693804 -11.2322
thorax 1.06171 0.14757 -5.02038
lowerneck -8.07923 -5.39446 -17.4409
upperneck 4.91518 -7.69596 27.8503
head 4.75959 -3.16787 11.67
rclavicle -5.08889e-014 -1.33583e-013
rhumerus -16.5178 -18.2607 9.7534
rradius 112.552
rwrist -48.4549
rhand 8.99304 12.1365
rfingers 7.12502
rthumb 34.1707 -14.6092
lclavicle -5.08889e-014 -1.33583e-013
lhumerus 2.60432 27.3277 -8.02207
lradius 20.7021
lwrist -21.5283
lhand -2.20663 28.4084
lfingers 7.12502
lthumb 23.4752 56.9962
rfemur -38.6525 0.254396 40.7474
rtibia 51.9119
rfoot -32.6384 -3.02276
rtoes -4.86632
lfemur -44.4176 15.0217 3.66855
ltibia 62.5501
lfoot -25.5866 -14.1645
ltoes -14.007
371
root -1.40898 15.68 -1.32139 11.8924 1.05879 -14.835
lowerback 17.7674 2.19302 -12.5582
upperback 9.91693 0.811386 -11.441
thorax 0.94516 0.233262 -5.47345
lowerneck -8.10594 -5.4415 -17.2828
upperneck 4.95233 -7.8021 28.0088
head 4.80527 -3.20865 11.6915
rclavicle 0 8.26944e-014
rhumerus -16.7548 -18.0985 9.52213
rradius 112.596
rwrist -48.0264
rhand 8.51447 12.3255
rfingers 7.12502
rthumb 33.716 -14.5209
lclavicle 0 8.26944e-014
lhumerus 2.16993 28.1364 -9.97804
lradius 20.7598
lwrist -21.6267
lhand -2.29893 28.3475
lfingers 7.12502
lthumb 23.3866 56.9466
rfemur -38.4583 0.102871 41.0389
rtibia 51.9878
rfoot -32.8359 -3.09924
rtoes -4.73687
lfemur -44.3464 14.7416 4.05067
ltibia 62.5804
lfoot -25.7746 -13.8645
ltoes -15.6812
372
root -1.43704 15.677 -1.2977 11.7841 1.39468 -14.8947
lowerback 17.7265 2.23736 -12.5149
upperback 9.84725 0.875476 -11.4657
thorax 0.889701 0.27169 -5.53436
lowerneck -8.19566 -5.44408 -17.3554
upperneck 5.07473 -7.805 27.9857
head 4.85909 -3.20028 11.6995
rclavicle 6.36111e-015 1.11319e-013
rhumerus -16.5536 -18.2681 9.53122
rradius 112.652
rwrist -48.1402
rhand 8.52523 11.9759
rfingers 7.12502
rthumb 33.7263 -14.8682
lclavicle 6.36111e-015 1.11319e-013
lhumerus 1.43553 29.2919 -11.6939
lradius 20.7898
lwrist -22.0958
lhand -2.35317 28.5032
lfingers 7.12502
lthumb 23.3346 57.1089
rfemur -38.3795 -0.162352 41.2831
rtibia 52.0336
rfoot -32.9681 -3.20434
rtoes -4.10701
lfemur -44.2915 14.4062 4.29487
ltibia 62.5702
lfoot -25.9916 -13.5397
ltoes -17.1594
